<?xml version="1.0" encoding="iso-8859-1"?>
<svg fill="#000000" height="800px" width="800px" version="1.1" id="Capa_1" xmlns="http://www.w3.org/2000/svg" xmlns:xlink="http://www.w3.org/1999/xlink" 
	 viewBox="0 0 470.2 470.2" xml:space="preserve">
<g>
	<g>
		<path d="M392.692,368.3V103c0-57.2-45.8-103-103-103h-109.2c-57.2,0-103,45.8-103,103v264.2c0,57.2,45.8,103,103,103h110.3
			C346.892,470.2,393.692,424.4,392.692,368.3z M180.492,40.6h109.2c32.6,0,59.5,25.3,62.2,57.2h-233.6
			C120.892,65.9,147.892,40.6,180.492,40.6z M352.092,368.3c0,34.3-28.1,62.4-62.4,62.4h-109.2c-34.3,0-62.4-28.1-62.4-62.4v-12.5
			h234.1v12.5H352.092z M352.092,314.2h-234.1V139.4h234.1V314.2z"/>
		<circle cx="235.592" cy="392.7" r="20.5"/>
	</g>
</g>
</svg>